<svg id="visual" viewBox="0 0 960 540" width="960" height="540" xmlns="http://www.w3.org/2000/svg" xmlns:xlink="http://www.w3.org/1999/xlink" version="1.1"><path d="M0 179L46 164L91 164L137 161L183 203L229 140L274 144L320 204L366 194L411 157L457 190L503 203L549 197L594 165L640 181L686 139L731 133L777 195L823 179L869 203L914 185L960 192L960 0L914 0L869 0L823 0L777 0L731 0L686 0L640 0L594 0L549 0L503 0L457 0L411 0L366 0L320 0L274 0L229 0L183 0L137 0L91 0L46 0L0 0Z" fill="#ffffff"></path><path d="M0 154L46 186L91 170L137 115L183 165L229 155L274 189L320 121L366 181L411 169L457 120L503 183L549 116L594 172L640 170L686 146L731 165L777 118L823 135L869 135L914 117L960 143L960 0L914 0L869 0L823 0L777 0L731 0L686 0L640 0L594 0L549 0L503 0L457 0L411 0L366 0L320 0L274 0L229 0L183 0L137 0L91 0L46 0L0 0Z" fill="#dfdfdf"></path><path d="M0 102L46 163L91 107L137 102L183 117L229 116L274 112L320 102L366 168L411 133L457 143L503 152L549 143L594 109L640 118L686 158L731 139L777 143L823 104L869 114L914 123L960 148L960 0L914 0L869 0L823 0L777 0L731 0L686 0L640 0L594 0L549 0L503 0L457 0L411 0L366 0L320 0L274 0L229 0L183 0L137 0L91 0L46 0L0 0Z" fill="#c0c0c0"></path><path d="M0 95L46 127L91 151L137 122L183 129L229 120L274 125L320 122L366 151L411 149L457 136L503 148L549 103L594 103L640 117L686 145L731 143L777 137L823 139L869 90L914 139L960 146L960 0L914 0L869 0L823 0L777 0L731 0L686 0L640 0L594 0L549 0L503 0L457 0L411 0L366 0L320 0L274 0L229 0L183 0L137 0L91 0L46 0L0 0Z" fill="#a2a2a2"></path><path d="M0 129L46 74L91 121L137 77L183 110L229 83L274 117L320 80L366 101L411 72L457 74L503 78L549 128L594 87L640 72L686 131L731 103L777 110L823 109L869 96L914 110L960 103L960 0L914 0L869 0L823 0L777 0L731 0L686 0L640 0L594 0L549 0L503 0L457 0L411 0L366 0L320 0L274 0L229 0L183 0L137 0L91 0L46 0L0 0Z" fill="#858585"></path><path d="M0 113L46 76L91 81L137 113L183 104L229 79L274 97L320 82L366 85L411 109L457 77L503 57L549 95L594 58L640 100L686 98L731 88L777 77L823 73L869 106L914 84L960 90L960 0L914 0L869 0L823 0L777 0L731 0L686 0L640 0L594 0L549 0L503 0L457 0L411 0L366 0L320 0L274 0L229 0L183 0L137 0L91 0L46 0L0 0Z" fill="#696969"></path><path d="M0 67L46 54L91 70L137 83L183 91L229 73L274 58L320 67L366 83L411 49L457 56L503 47L549 44L594 48L640 49L686 72L731 57L777 70L823 51L869 82L914 92L960 60L960 0L914 0L869 0L823 0L777 0L731 0L686 0L640 0L594 0L549 0L503 0L457 0L411 0L366 0L320 0L274 0L229 0L183 0L137 0L91 0L46 0L0 0Z" fill="#4e4e4e"></path><path d="M0 46L46 74L91 74L137 63L183 61L229 72L274 42L320 46L366 45L411 47L457 49L503 51L549 32L594 68L640 49L686 55L731 34L777 36L823 50L869 57L914 72L960 55L960 0L914 0L869 0L823 0L777 0L731 0L686 0L640 0L594 0L549 0L503 0L457 0L411 0L366 0L320 0L274 0L229 0L183 0L137 0L91 0L46 0L0 0Z" fill="#353535"></path><path d="M0 45L46 48L91 33L137 37L183 43L229 50L274 46L320 30L366 18L411 22L457 35L503 48L549 19L594 44L640 28L686 54L731 35L777 50L823 30L869 32L914 46L960 24L960 0L914 0L869 0L823 0L777 0L731 0L686 0L640 0L594 0L549 0L503 0L457 0L411 0L366 0L320 0L274 0L229 0L183 0L137 0L91 0L46 0L0 0Z" fill="#1e1e1e"></path><path d="M0 30L46 29L91 5L137 2L183 36L229 10L274 2L320 8L366 18L411 20L457 23L503 24L549 5L594 28L640 5L686 18L731 23L777 4L823 18L869 8L914 13L960 7L960 0L914 0L869 0L823 0L777 0L731 0L686 0L640 0L594 0L549 0L503 0L457 0L411 0L366 0L320 0L274 0L229 0L183 0L137 0L91 0L46 0L0 0Z" fill="#000000"></path></svg>